<svg xmlns="http://www.w3.org/2000/svg" xmlns:xlink="http://www.w3.org/1999/xlink" version="1.1" width="256" height="256" viewBox="0 0 256 256" xml:space="preserve">
<desc>Created with Fabric.js 1.7.22</desc>
<defs>
</defs>
<g transform="translate(128 128) scale(0.72 0.72)" style="">
	<g style="stroke: none; stroke-width: 0; stroke-dasharray: none; stroke-linecap: butt; stroke-linejoin: miter; stroke-miterlimit: 10; fill: none; fill-rule: nonzero; opacity: 1;" transform="translate(-175.05 -175.05000000000004) scale(3.89 3.89)" >
	<path d="M 88 79.297 H 2 c -1.104 0 -2 -0.896 -2 -2 V 13.703 c 0 -1.104 0.896 -2 2 -2 h 86 c 1.104 0 2 0.896 2 2 v 63.594 C 90 78.401 89.104 79.297 88 79.297 z M 4 75.297 h 82 V 15.703 H 4 V 75.297 z" style="stroke: none; stroke-width: 1; stroke-dasharray: none; stroke-linecap: butt; stroke-linejoin: miter; stroke-miterlimit: 10; fill: rgb(0,0,0); fill-rule: nonzero; opacity: 1;" transform=" matrix(1 0 0 1 0 0) " stroke-linecap="round" />
	<path d="M 88 29.383 H 2 c -1.104 0 -2 -0.896 -2 -2 v -13.68 c 0 -1.104 0.896 -2 2 -2 h 86 c 1.104 0 2 0.896 2 2 v 13.68 C 90 28.487 89.104 29.383 88 29.383 z M 4 25.383 h 82 v -9.68 H 4 V 25.383 z" style="stroke: none; stroke-width: 1; stroke-dasharray: none; stroke-linecap: butt; stroke-linejoin: miter; stroke-miterlimit: 10; fill: rgb(0,0,0); fill-rule: nonzero; opacity: 1;" transform=" matrix(1 0 0 1 0 0) " stroke-linecap="round" />
	<path d="M 57.535 22.543 H 9.457 c -1.104 0 -2 -0.896 -2 -2 s 0.896 -2 2 -2 h 48.079 c 1.104 0 2 0.896 2 2 S 58.64 22.543 57.535 22.543 z" style="stroke: none; stroke-width: 1; stroke-dasharray: none; stroke-linecap: butt; stroke-linejoin: miter; stroke-miterlimit: 10; fill: rgb(0,0,0); fill-rule: nonzero; opacity: 1;" transform=" matrix(1 0 0 1 0 0) " stroke-linecap="round" />
	<path d="M 80.544 22.543 h -1.642 c -1.104 0 -2 -0.896 -2 -2 s 0.896 -2 2 -2 h 1.642 c 1.104 0 2 0.896 2 2 S 81.648 22.543 80.544 22.543 z" style="stroke: none; stroke-width: 1; stroke-dasharray: none; stroke-linecap: butt; stroke-linejoin: miter; stroke-miterlimit: 10; fill: rgb(0,0,0); fill-rule: nonzero; opacity: 1;" transform=" matrix(1 0 0 1 0 0) " stroke-linecap="round" />
	<path d="M 41.482 68.958 H 9.457 c -1.104 0 -2 -0.896 -2 -2 V 37.64 c 0 -1.104 0.896 -2 2 -2 h 32.025 c 1.104 0 2 0.896 2 2 v 29.318 C 43.482 68.063 42.586 68.958 41.482 68.958 z M 11.457 64.958 h 28.025 V 39.64 H 11.457 V 64.958 z" style="stroke: none; stroke-width: 1; stroke-dasharray: none; stroke-linecap: butt; stroke-linejoin: miter; stroke-miterlimit: 10; fill: rgb(0,0,0); fill-rule: nonzero; opacity: 1;" transform=" matrix(1 0 0 1 0 0) " stroke-linecap="round" />
	<path d="M 41.482 68.958 H 9.457 c -0.737 0 -1.415 -0.406 -1.763 -1.056 c -0.348 -0.65 -0.31 -1.439 0.099 -2.053 l 7.972 -11.97 c 0.308 -0.463 0.794 -0.776 1.342 -0.865 c 0.544 -0.09 1.108 0.052 1.547 0.393 l 5.301 4.108 l 9.057 -12.896 c 0.319 -0.455 0.813 -0.756 1.363 -0.832 c 0.549 -0.076 1.106 0.08 1.537 0.43 l 6.834 5.566 c 0.466 0.38 0.737 0.949 0.737 1.551 v 15.622 C 43.482 68.063 42.586 68.958 41.482 68.958 z M 13.191 64.958 h 26.291 V 52.286 l -4.432 -3.609 L 26.022 61.53 c -0.314 0.447 -0.798 0.747 -1.339 0.828 c -0.542 0.078 -1.091 -0.062 -1.523 -0.396 l -5.259 -4.076 L 13.191 64.958 z" style="stroke: none; stroke-width: 1; stroke-dasharray: none; stroke-linecap: butt; stroke-linejoin: miter; stroke-miterlimit: 10; fill: rgb(0,0,0); fill-rule: nonzero; opacity: 1;" transform=" matrix(1 0 0 1 0 0) " stroke-linecap="round" />
	<path d="M 80.544 39.64 H 51.091 c -1.104 0 -2 -0.896 -2 -2 s 0.896 -2 2 -2 h 29.453 c 1.104 0 2 0.896 2 2 S 81.648 39.64 80.544 39.64 z" style="stroke: none; stroke-width: 1; stroke-dasharray: none; stroke-linecap: butt; stroke-linejoin: miter; stroke-miterlimit: 10; fill: rgb(0,0,0); fill-rule: nonzero; opacity: 1;" transform=" matrix(1 0 0 1 0 0) " stroke-linecap="round" />
	<path d="M 80.544 49.413 H 51.091 c -1.104 0 -2 -0.896 -2 -2 s 0.896 -2 2 -2 h 29.453 c 1.104 0 2 0.896 2 2 S 81.648 49.413 80.544 49.413 z" style="stroke: none; stroke-width: 1; stroke-dasharray: none; stroke-linecap: butt; stroke-linejoin: miter; stroke-miterlimit: 10; fill: rgb(0,0,0); fill-rule: nonzero; opacity: 1;" transform=" matrix(1 0 0 1 0 0) " stroke-linecap="round" />
	<path d="M 80.544 59.186 H 51.091 c -1.104 0 -2 -0.896 -2 -2 s 0.896 -2 2 -2 h 29.453 c 1.104 0 2 0.896 2 2 S 81.648 59.186 80.544 59.186 z" style="stroke: none; stroke-width: 1; stroke-dasharray: none; stroke-linecap: butt; stroke-linejoin: miter; stroke-miterlimit: 10; fill: rgb(0,0,0); fill-rule: nonzero; opacity: 1;" transform=" matrix(1 0 0 1 0 0) " stroke-linecap="round" />
	<path d="M 80.544 68.958 H 51.091 c -1.104 0 -2 -0.896 -2 -2 s 0.896 -2 2 -2 h 29.453 c 1.104 0 2 0.896 2 2 S 81.648 68.958 80.544 68.958 z" style="stroke: none; stroke-width: 1; stroke-dasharray: none; stroke-linecap: butt; stroke-linejoin: miter; stroke-miterlimit: 10; fill: rgb(0,0,0); fill-rule: nonzero; opacity: 1;" transform=" matrix(1 0 0 1 0 0) " stroke-linecap="round" />
	<path d="M 68.771 22.543 H 67.13 c -1.104 0 -2 -0.896 -2 -2 s 0.896 -2 2 -2 h 1.641 c 1.104 0 2 0.896 2 2 S 69.875 22.543 68.771 22.543 z" style="stroke: none; stroke-width: 1; stroke-dasharray: none; stroke-linecap: butt; stroke-linejoin: miter; stroke-miterlimit: 10; fill: rgb(0,0,0); fill-rule: nonzero; opacity: 1;" transform=" matrix(1 0 0 1 0 0) " stroke-linecap="round" />
</g>
</g>
</svg>