<?xml version="1.0" encoding="iso-8859-1"?>
<!-- Generator: Adobe Illustrator 19.0.0, SVG Export Plug-In . SVG Version: 6.00 Build 0)  -->
<svg version="1.1" id="Capa_1" xmlns="http://www.w3.org/2000/svg" xmlns:xlink="http://www.w3.org/1999/xlink" x="0px" y="0px"
	 viewBox="0 0 489.1 489.1" style="enable-background:new 0 0 489.1 489.1;" xml:space="preserve">
<g>
	<g>
		<g>
			<path d="M117.25,261.8l77.4-74.4l50.9,34.6c7.1,5.1,17.3,5.1,24.4-1l59.1-47.9v29.6c0,11.2,9.2,20.4,20.4,20.4
				c11.2,0,20.4-9.2,20.4-20.4v-77.4c0-11.2-9.2-20.4-20.4-20.4h-75.4c-11.2,0-20.4,9.2-20.4,20.4s9.2,20.4,20.4,20.4h24.5
				l-42.8,34.6l-52-35.7c-8.1-5.1-18.3-5.1-25.5,2l-88.6,85.6c-8.1,7.1-9.2,20.4-1,28.5C91.75,264.9,106.45,271.7,117.25,261.8z"/>
			<path d="M468.65,0H20.45C9.25,0,0.05,9.2,0.05,20.4v314.8c0,11.2,9.2,20.4,20.4,20.4h203.7v92.7h-95.8
				c-11.2,0-20.4,9.2-20.4,20.4s9.2,20.4,20.4,20.4h232.3c11.2,0,19.4-9.2,19.4-20.4s-9.2-20.4-20.4-20.4h-94.7v-92.8h203.7
				c11.2,0,20.4-9.2,20.4-20.4V20.4C489.05,9.2,479.85,0,468.65,0z M448.25,314.8H40.85v-274h407.5v274H448.25z"/>
		</g>
	</g>
</g>
<g>
</g>
<g>
</g>
<g>
</g>
<g>
</g>
<g>
</g>
<g>
</g>
<g>
</g>
<g>
</g>
<g>
</g>
<g>
</g>
<g>
</g>
<g>
</g>
<g>
</g>
<g>
</g>
<g>
</g>
</svg>
